<svg width="1062" height="483" viewBox="0 0 1062 483" fill="none" xmlns="http://www.w3.org/2000/svg">
<rect width="1062" height="483" fill="none"/>
<path d="M393.627 178.244C353.717 178.314 323.067 209.134 323.177 249.084C323.287 288.854 354.177 319.404 394.257 319.304C434.117 319.214 464.927 288.254 464.767 248.454C464.607 208.654 433.727 178.164 393.627 178.244ZM409.367 288.094C394.427 294.744 380.297 292.094 368.027 281.394C352.137 267.514 349.517 240.854 361.937 222.994C365.351 217.99 369.892 213.856 375.194 210.925C380.495 207.994 386.411 206.346 392.465 206.116C398.518 205.885 404.542 207.078 410.051 209.598C415.561 212.117 420.402 215.894 424.187 220.624C430.417 228.264 433.657 237.944 433.647 252.204C433.057 266.624 426.057 280.654 409.367 288.094Z" fill="#DB4437"/>
<path d="M547.737 178.194C507.567 178.254 476.737 209.074 476.847 249.194C476.927 288.784 507.977 319.374 548.017 319.324C587.727 319.274 618.567 288.605 618.607 249.165C618.637 208.955 587.857 178.144 547.737 178.194ZM542.617 291.074C527.507 289.384 514.617 277.874 509.907 261.924C503.907 241.564 512.407 219.554 529.677 210.624C554.737 197.624 584.167 214.194 587.127 242.924C587.327 244.924 587.367 246.924 587.397 247.484C587.387 275.064 567.417 293.854 542.617 291.074Z" fill="#F4B400"/>
<path d="M867.107 270.044C898.257 257.144 929.427 244.235 961.167 231.105C958.727 225.505 956.837 220.515 954.457 215.765C936.537 180.185 897.997 167.615 864.687 187.025C842.837 199.765 833.087 220.105 831.687 244.765C828.777 298.105 879.517 334.255 928.557 313.825C941.437 308.455 951.557 299.615 959.657 288.035L935.657 272.134C915.917 301.434 876.667 294.784 867.107 270.044ZM889.807 206.814C903.907 202.814 918.477 208.395 924.387 220.515L861.857 246.515C860.307 228.695 872.507 211.714 889.807 206.814Z" fill="#DB4437"/>
<path d="M311.837 199.775H306.137C276.977 199.775 247.817 199.775 218.657 199.775C216.837 199.775 215.027 200.004 213.207 200.124H212.207C211.927 200.284 211.417 200.435 211.417 200.605C211.287 209.785 211.167 218.975 211.237 228.165C211.237 228.595 213.017 229.004 213.967 229.424C215.114 229.6 216.269 229.717 217.427 229.775C239.027 229.775 260.634 229.775 282.247 229.775C280.727 248.775 272.547 263.994 257.107 275.424C225.037 299.184 162.847 295.114 139.887 242.754C126.577 212.404 130.457 183.085 152.047 157.605C173.327 132.475 206.547 123.704 236.787 134.734C246.907 138.424 256.037 144.794 265.007 149.614L286.067 129.884C286.067 129.884 284.547 128.755 283.957 128.205C245.517 92.5845 186.487 90.4645 143.327 123.205C91.4771 162.574 85.1171 236.975 129.917 284.145C156.297 311.915 189.137 322.834 226.917 318.634C268.817 313.974 301.457 285.114 310.657 245.254C314.178 230.337 314.58 214.854 311.837 199.775Z" fill="#4285F4"/>
<path d="M766.007 182.855H736.917C736.757 186.415 736.617 189.755 736.437 193.715L730.297 189.054L723.297 184.374C710.137 177.044 696.227 176.574 682.127 180.544C655.237 188.104 634.477 212.245 631.697 239.845C628.607 270.415 640.257 294.335 666.517 310.415C687.967 323.545 717.307 323.135 735.317 304.415C735.467 304.265 735.907 304.415 736.317 304.415C736.317 310.215 736.817 316.034 736.227 321.734C734.477 338.504 725.517 349.364 710.757 353.374C695.007 357.654 679.277 352.534 669.687 339.814C667.397 336.814 665.557 333.424 663.287 329.814L636.847 340.814C651.747 376.555 690.747 391.374 726.257 377.814L742.817 368.244C742.869 368.258 742.922 368.26 742.974 368.251C743.027 368.242 743.077 368.223 743.121 368.194C743.165 368.164 743.203 368.126 743.231 368.082C743.26 368.037 743.279 367.987 743.287 367.934L744.207 367.085L745.207 366.085L748.587 362.554L748.537 362.434C751.077 359.204 754.027 356.215 756.067 352.695C763.437 339.985 766.187 326.025 766.197 311.455C766.197 269.815 766.197 228.171 766.197 186.525C766.227 185.425 766.097 184.285 766.007 182.855ZM735.067 268.225C728.287 284.585 713.637 292.985 696.447 291.155C680.627 289.475 666.847 276.405 663.277 259.515C662.527 255.965 662.277 252.294 662.007 249.934C662.597 233.224 668.187 220.425 681.507 211.885C685.447 209.286 689.864 207.497 694.501 206.622C699.139 205.747 703.904 205.803 708.52 206.786C713.136 207.77 717.51 209.662 721.387 212.352C725.265 215.041 728.569 218.476 731.107 222.455C740.457 236.895 741.607 252.435 735.067 268.225V268.225Z" fill="#4285F4"/>
<path d="M787.127 107.664V314.845H817.627V107.664H787.127Z" fill="#0F9D58"/>
</svg>