<svg width="55" height="55" viewBox="0 0 55 55" fill="none" xmlns="http://www.w3.org/2000/svg">
<rect width="55" height="55" fill="none"/>
<circle cx="27.91" cy="27.91" r="27.09" fill="white" fill-opacity="0.35"/>
<path d="M47.3747 28.5667C47.3747 27.1438 47.247 25.7756 47.0098 24.4622H28.1107V32.2335H38.9102C38.4359 34.7327 37.013 36.8488 34.8786 38.2717V43.3248H41.3912C45.1856 39.8223 47.3747 34.6779 47.3747 28.5667Z" fill="#4285F4"/>
<path d="M28.1107 48.1773C33.5287 48.1773 38.071 46.3896 41.3912 43.3248L34.8786 38.2717C33.0908 39.4757 30.8105 40.2054 28.1107 40.2054C22.8933 40.2054 18.4604 36.6846 16.8733 31.9416H10.1966V37.1224C13.4985 43.6715 20.2664 48.1773 28.1107 48.1773Z" fill="#34A853"/>
<path d="M16.8733 31.9233C16.472 30.7193 16.2348 29.4424 16.2348 28.1107C16.2348 26.779 16.472 25.502 16.8733 24.298V19.1172H10.1966C8.82842 21.817 8.044 24.8635 8.044 28.1107C8.044 31.3578 8.82842 34.4043 10.1966 37.1042L15.3957 33.0544L16.8733 31.9233Z" fill="#FBBC05"/>
<path d="M28.1107 16.0342C31.0659 16.0342 33.6928 17.0558 35.7907 19.0259L41.5371 13.2796C38.0528 10.0324 33.5287 8.044 28.1107 8.044C20.2664 8.044 13.4985 12.5499 10.1966 19.1172L16.8733 24.298C18.4604 19.555 22.8933 16.0342 28.1107 16.0342Z" fill="#EA4335"/>
</svg>